<svg width="2.5in" height=".69834in" version="1.1" viewBox="0 0 63.5 17.738" xmlns="http://www.w3.org/2000/svg">
 <g stroke-width=".25199">
  <path d="m14.44 9.4079v-9.4077h4.9726q0.34943 0 0.64511 0.26879l1.2902 1.0752q0.32255 0.26879 0.32255 0.53758v5.6446q0 0.26879-0.32255 0.53759l-1.2902 1.0752q-0.29568 0.2688-0.64511 0.2688zm6.1016-2.2847v-4.8382q0-0.26879-0.32255-0.53759l-0.6451-0.53758q-0.29567-0.26879-0.6451-0.26879h-3.3599v7.5262h3.3599q0.34943 0 0.6451-0.26879l0.6451-0.53758q0.32255-0.26879 0.32255-0.53759z"/>
  <path d="m28.215 8.8703h-0.0538q0 0.16128-0.29567 0.33599-0.24191 0.14784-0.33599 0.17472-0.0806 0.0269-0.32255 0.0269h-2.2982q-0.32255 0-0.6451-0.2688l-0.32255-0.26879q-0.32255-0.26879-0.32255-0.67198v-1.6128q0-0.40319 0.32255-0.67198l0.32255-0.26879q0.32255-0.26879 0.6451-0.26879h2.4057q0.25535 0 0.32255 0.0269 0.0672 0.0134 0.17471 0.10752 0.16128 0.1344 0.16128 0.26879h0.0538v-1.5993q0-0.20159-0.0269-0.25535-0.0134-0.0672-0.1344-0.16128-0.12095-0.0941-0.18815-0.10751-0.0672-0.0269-0.30911-0.0269h-2.1772q-0.24191 0-0.33599 0.0403-0.0806 0.0269-0.32255 0.22847l-0.80637-0.67198 0.32255-0.26879q0.24191-0.2016 0.32255-0.22848 0.0941-0.0403 0.33599-0.0403h3.1583q0.32255 0 0.6451 0.26879l0.32255 0.26879q0.32255 0.26879 0.32255 0.67198v4.0184q0 0.20159 0.0134 0.26879 0.0269 0.0538 0.14784 0.14784 0.12096 0.0941 0.1344 0.16127 0.0269 0.0538 0.0269 0.25535v0.65855h-0.47038q-0.24191 0-0.33599-0.0269-0.0806-0.0403-0.24191-0.17472-0.21504-0.17471-0.21504-0.33599zm-3.4674-2.0025v1.0483q0 0.20159 0.0134 0.26879 0.0269 0.0538 0.14783 0.14784 0.12096 0.0941 0.18816 0.12095 0.0672 0.0134 0.30911 0.0134h1.6396q0.24191 0 0.32255-0.0269 0.0941-0.0269 0.33599-0.17471 0.24191-0.14784 0.28223-0.21503 0.0403-0.0672 0.0403-0.2688v-0.91389q0-0.20159-0.0269-0.25535-0.0134-0.0672-0.1344-0.16128-0.12095-0.0941-0.18815-0.10751-0.0672-0.0269-0.30911-0.0269h-1.9622q-0.24192 0-0.30911 0.0269-0.0672 0.0134-0.18816 0.10751-0.12096 0.0941-0.14783 0.16128-0.0134 0.0538-0.0134 0.25535z"/>
  <path d="m35.827 8.8703h-0.0538q0 0.16128-0.29567 0.33599-0.24192 0.14784-0.33599 0.17472-0.0806 0.0269-0.32256 0.0269h-2.2982q-0.32255 0-0.6451-0.2688l-0.32255-0.26879q-0.32255-0.26879-0.32255-0.67198v-1.6128q0-0.40319 0.32255-0.67198l0.32255-0.26879q0.32255-0.26879 0.6451-0.26879h2.4057q0.25535 0 0.32255 0.0269 0.0672 0.0134 0.17472 0.10752 0.16127 0.1344 0.16127 0.26879h0.0538v-1.5993q0-0.20159-0.0269-0.25535-0.0134-0.0672-0.13439-0.16128-0.12096-0.0941-0.18816-0.10751-0.0672-0.0269-0.30911-0.0269h-2.1772q-0.24191 0-0.33599 0.0403-0.0806 0.0269-0.32255 0.22847l-0.80637-0.67198 0.32255-0.26879q0.24191-0.2016 0.32255-0.22848 0.0941-0.0403 0.33599-0.0403h3.1583q0.32255 0 0.6451 0.26879l0.32255 0.26879q0.32255 0.26879 0.32255 0.67198v4.0184q0 0.20159 0.0134 0.26879 0.0269 0.0538 0.14783 0.14784 0.12096 0.0941 0.1344 0.16127 0.0269 0.0538 0.0269 0.25535v0.65855h-0.47039q-0.24191 0-0.33599-0.0269-0.0806-0.0403-0.24191-0.17472-0.21504-0.17471-0.21504-0.33599zm-3.4674-2.0025v1.0483q0 0.20159 0.0134 0.26879 0.0269 0.0538 0.14783 0.14784 0.12096 0.0941 0.18816 0.12095 0.0672 0.0134 0.30911 0.0134h1.6396q0.24191 0 0.32255-0.0269 0.0941-0.0269 0.33599-0.17471 0.24191-0.14784 0.28223-0.21503 0.0403-0.0672 0.0403-0.2688v-0.91389q0-0.20159-0.0269-0.25535-0.0134-0.0672-0.13439-0.16128-0.12096-0.0941-0.18816-0.10751-0.0672-0.0269-0.30911-0.0269h-1.9622q-0.24191 0-0.30911 0.0269-0.0672 0.0134-0.18816 0.10751-0.12095 0.0941-0.14783 0.16128-0.0134 0.0538-0.0134 0.25535z"/>
  <path d="m40.254 0.80656v1.8816h1.7203q0.17472 0.13439 0.2016 0.21503 0.0403 0.0672 0.0403 0.37631v0.34943h-1.9622v4.2872q0 0.20159 0.0134 0.26879 0.0269 0.0538 0.14784 0.14784 0.12096 0.0941 0.18815 0.12095 0.0672 0.0134 0.30911 0.0134h1.223q0.17471 0.1344 0.20159 0.21504 0.0403 0.0672 0.0403 0.37631v0.34943h-1.9622q-0.32255 0-0.6451-0.2688l-0.32255-0.26879q-0.32255-0.26879-0.32255-0.67198v-4.5695h-0.6451q-0.17472-0.1344-0.21504-0.2016-0.0269-0.0806-0.0269-0.38975v-0.34938h0.88702v-1.8816z"/>
  <path d="m48.531 8.8703h-0.0538q0 0.16128-0.29567 0.33599-0.24192 0.14784-0.33599 0.17472-0.0806 0.0269-0.32255 0.0269h-2.2982q-0.32255 0-0.64511-0.2688l-0.32255-0.26879q-0.32255-0.26879-0.32255-0.67198v-1.6128q0-0.40319 0.32255-0.67198l0.32255-0.26879q0.32256-0.26879 0.64511-0.26879h2.4057q0.25536 0 0.32255 0.0269 0.0672 0.0134 0.17472 0.10752 0.16127 0.1344 0.16127 0.26879h0.0538v-1.5993q0-0.20159-0.0269-0.25535-0.0134-0.0672-0.13439-0.16128-0.12096-0.0941-0.18816-0.10751-0.0672-0.0269-0.30911-0.0269h-2.1772q-0.24192 0-0.33599 0.0403-0.0806 0.0269-0.32255 0.22847l-0.80638-0.67198 0.32255-0.26879q0.24191-0.2016 0.32255-0.22848 0.0941-0.0403 0.33599-0.0403h3.1583q0.32255 0 0.6451 0.26879l0.32255 0.26879q0.32255 0.26879 0.32255 0.67198v4.0184q0 0.20159 0.0134 0.26879 0.0269 0.0538 0.14783 0.14784 0.12096 0.0941 0.1344 0.16127 0.0269 0.0538 0.0269 0.25535v0.65855h-0.47039q-0.24191 0-0.33599-0.0269-0.0806-0.0403-0.24191-0.17472-0.21503-0.17471-0.21503-0.33599zm-3.4674-2.0025v1.0483q0 0.20159 0.0134 0.26879 0.0269 0.0538 0.14784 0.14784 0.12095 0.0941 0.18815 0.12095 0.0672 0.0134 0.30911 0.0134h1.6396q0.24191 0 0.32255-0.0269 0.0941-0.0269 0.33599-0.17471 0.24192-0.14784 0.28223-0.21503 0.0403-0.0672 0.0403-0.2688v-0.91389q0-0.20159-0.0269-0.25535-0.0134-0.0672-0.13439-0.16128-0.12096-0.0941-0.18816-0.10751-0.0672-0.0269-0.30911-0.0269h-1.9622q-0.24191 0-0.30911 0.0269-0.0672 0.0134-0.18815 0.10751-0.12096 0.0941-0.14784 0.16128-0.0134 0.0538-0.0134 0.25535z"/>
  <path d="m56.144 8.8703h-0.0538q0 0.16128-0.29567 0.33599-0.24191 0.14784-0.33599 0.17472-0.0806 0.0269-0.32255 0.0269h-2.2982q-0.32255 0-0.6451-0.2688l-0.32255-0.26879q-0.32255-0.26879-0.32255-0.67198v-1.6128q0-0.40319 0.32255-0.67198l0.32255-0.26879q0.32255-0.26879 0.6451-0.26879h2.4057q0.25535 0 0.32255 0.0269 0.0672 0.0134 0.17471 0.10752 0.16128 0.1344 0.16128 0.26879h0.0538v-1.5993q0-0.20159-0.0269-0.25535-0.0134-0.0672-0.1344-0.16128-0.12096-0.0941-0.18815-0.10751-0.0672-0.0269-0.30912-0.0269h-2.1772q-0.24191 0-0.33599 0.0403-0.0806 0.0269-0.32255 0.22847l-0.80638-0.67198 0.32255-0.26879q0.24192-0.2016 0.32255-0.22848 0.0941-0.0403 0.33599-0.0403h3.1583q0.32255 0 0.6451 0.26879l0.32255 0.26879q0.32255 0.26879 0.32255 0.67198v4.0184q0 0.20159 0.0134 0.26879 0.0269 0.0538 0.14784 0.14784 0.12095 0.0941 0.13439 0.16127 0.0269 0.0538 0.0269 0.25535v0.65855h-0.47038q-0.24192 0-0.33599-0.0269-0.0806-0.0403-0.24192-0.17472-0.21503-0.17471-0.21503-0.33599zm-3.4674-2.0025v1.0483q0 0.20159 0.0134 0.26879 0.0269 0.0538 0.14784 0.14784 0.12095 0.0941 0.18815 0.12095 0.0672 0.0134 0.30911 0.0134h1.6396q0.24192 0 0.32255-0.0269 0.0941-0.0269 0.33599-0.17471 0.24192-0.14784 0.28224-0.21503 0.0403-0.0672 0.0403-0.2688v-0.91389q0-0.20159-0.0269-0.25535-0.0134-0.0672-0.1344-0.16128-0.12096-0.0941-0.18815-0.10751-0.0672-0.0269-0.30912-0.0269h-1.9622q-0.24191 0-0.30911 0.0269-0.0672 0.0134-0.18815 0.10751-0.12096 0.0941-0.14784 0.16128-0.0134 0.0538-0.0134 0.25535z"/>
  <path d="m59.025 2.6881h0.47039q0.24191 0 0.32255 0.0403 0.0941 0.0269 0.25535 0.16128 0.21504 0.17471 0.21504 0.33599h0.0538q0-0.16128 0.29567-0.33599 0.24191-0.14784 0.32255-0.17472 0.0941-0.0269 0.33599-0.0269h1.2364q0.32255 0 0.6451 0.26879l0.32255 0.26879-0.80637 0.67198-0.16128-0.1344q-0.12096-0.0941-0.18815-0.10751-0.0672-0.0269-0.30912-0.0269h-0.5779q-0.24191 0-0.33599 0.0269-0.0806 0.0269-0.32255 0.17471-0.24191 0.14784-0.28223 0.21503-0.0403 0.0672-0.0403 0.2688v5.0936h-1.1289v-5.228q0-0.20159-0.0269-0.25535-0.0134-0.0672-0.1344-0.16128-0.12096-0.0941-0.14784-0.14783-0.0134-0.0672-0.0134-0.26879z"/>
  <path d="m18.851 15.161q0.0645 0 0.11692 0.0524l0.30643 0.33465q-0.35481 0.41125-0.86283 0.64107-0.50399 0.22982-1.2176 0.22982-0.62494 0-1.133-0.21369-0.50802-0.21772-0.86686-0.60479-0.35884-0.3911-0.55641-0.93541-0.19756-0.54431-0.19756-1.1975t0.20966-1.1975q0.21369-0.54431 0.59673-0.93541 0.38303-0.39109 0.91524-0.60478 0.53625-0.21773 1.1814-0.21773 0.63704 0 1.0967 0.19757 0.46367 0.19756 0.82251 0.53624l-0.25401 0.35884q-0.0282 0.0403-0.0645 0.0685-0.0363 0.0242-0.10483 0.0242-0.0524 0-0.11289-0.0363-0.0564-0.0403-0.13709-0.0968-0.0806-0.0564-0.1895-0.12095-0.10886-0.0645-0.25804-0.12096-0.14918-0.0565-0.34675-0.0927-0.19756-0.0403-0.45561-0.0403-0.46367 0-0.85073 0.16128-0.38303 0.15725-0.66124 0.45158-0.2782 0.29433-0.43545 0.71768-0.15321 0.42335-0.15321 0.9475 0 0.54028 0.15321 0.96363 0.15725 0.42335 0.42336 0.71769 0.27014 0.29029 0.63704 0.44351 0.36691 0.15321 0.79026 0.15321 0.25804 0 0.46367-0.0282 0.20563-0.0323 0.379-0.0968 0.17741-0.0645 0.32659-0.16128 0.15321-0.10079 0.30642-0.23788 0.0685-0.0605 0.13306-0.0605z"/>
  <path d="m21.847 12.206q0.44755 0 0.80639 0.14918 0.36287 0.14918 0.61285 0.42335 0.25401 0.27417 0.38707 0.66527 0.13708 0.38707 0.13708 0.86686 0 0.48384-0.13708 0.8709-0.13306 0.38707-0.38707 0.66124-0.24998 0.27417-0.61285 0.42335-0.35884 0.14515-0.80639 0.14515-0.44754 0-0.81041-0.14515-0.35884-0.14918-0.61286-0.42335-0.25401-0.27417-0.39109-0.66124-0.13709-0.38706-0.13709-0.8709 0-0.47979 0.13709-0.86686 0.13708-0.3911 0.39109-0.66527 0.25402-0.27417 0.61286-0.42335 0.36287-0.14918 0.81041-0.14918zm0 3.6449q0.60479 0 0.90316-0.40319 0.29836-0.40723 0.29836-1.133 0-0.72978-0.29836-1.137-0.29837-0.40722-0.90316-0.40722-0.30642 0-0.53221 0.10483t-0.379 0.30239q-0.14918 0.19757-0.22579 0.48787-0.0726 0.28626-0.0726 0.64914 0 0.36287 0.0726 0.64914 0.0766 0.28626 0.22579 0.48383 0.15321 0.19353 0.379 0.29836t0.53221 0.10483z"/>
  <path d="m24.683 16.355v-4.0843h0.42739q0.15321 0 0.19353 0.14918l0.0564 0.44351q0.26611-0.29433 0.5927-0.47576 0.33062-0.18144 0.76203-0.18144 0.33465 0 0.58866 0.11289 0.25805 0.10887 0.42739 0.31449 0.17337 0.2016 0.26207 0.48787 0.0887 0.28626 0.0887 0.63301v2.6006h-0.71768v-2.6006q0-0.46367-0.21369-0.71768-0.20966-0.25805-0.64511-0.25805-0.31852 0-0.59672 0.15322-0.27417 0.15321-0.50803 0.41528v3.0078z"/>
  <path d="m31.51 12.944q-0.0484 0.0887-0.14918 0.0887-0.0605 0-0.13708-0.0444-0.0766-0.0444-0.1895-0.0968-0.10886-0.0565-0.26208-0.1008-0.15321-0.0484-0.36287-0.0484-0.18144 0-0.32659 0.0484-0.14515 0.0444-0.24998 0.12499-0.10079 0.0806-0.15724 0.1895-0.0524 0.10483-0.0524 0.22982 0 0.15724 0.0887 0.26207 0.0927 0.10483 0.24191 0.18144 0.14918 0.0766 0.33868 0.13709 0.1895 0.0564 0.38707 0.12499 0.20159 0.0645 0.39109 0.14515 0.1895 0.0806 0.33869 0.20159 0.14918 0.12096 0.23788 0.29836 0.0927 0.17338 0.0927 0.41932 0 0.28224-0.10079 0.52415-0.1008 0.23789-0.29837 0.41529-0.19756 0.17338-0.48383 0.27417-0.28626 0.1008-0.66123 0.1008-0.42739 0-0.77413-0.13708-0.34675-0.14112-0.58866-0.35885l0.16934-0.27417q0.0323-0.0524 0.0766-0.0806t0.11693-0.0282q0.0726 0 0.15321 0.0565 0.0806 0.0564 0.19353 0.12499 0.11693 0.0685 0.27821 0.12499 0.16531 0.0564 0.41125 0.0564 0.20966 0 0.36691-0.0524 0.15724-0.0565 0.26207-0.14918 0.10483-0.0927 0.15322-0.21369 0.0524-0.12096 0.0524-0.25805 0-0.16934-0.0927-0.2782-0.0887-0.11289-0.23789-0.1895-0.14918-0.0806-0.34271-0.13709-0.1895-0.0605-0.3911-0.12498-0.19756-0.0645-0.39109-0.14515-0.1895-0.0847-0.33868-0.20966-0.14919-0.12499-0.24192-0.30643-0.0887-0.18547-0.0887-0.44754 0-0.23386 0.0968-0.44755 0.0968-0.21772 0.28224-0.379 0.18547-0.16531 0.45561-0.26207 0.27014-0.0968 0.61688-0.0968 0.40319 0 0.72172 0.12902 0.32255 0.12499 0.5564 0.34675z"/>
  <path d="m33.289 12.271v2.6046q0 0.46368 0.21369 0.71769t0.64511 0.25401q0.31449 0 0.59269-0.14918 0.27821-0.14918 0.51206-0.41529v-3.0118h0.71768v4.0843h-0.42738q-0.15322 0-0.19354-0.14918l-0.0564-0.43948q-0.26611 0.29433-0.59673 0.47577-0.33062 0.1774-0.758 0.1774-0.33465 0-0.59269-0.10886-0.25402-0.11289-0.42739-0.31449t-0.26207-0.48786q-0.0847-0.28627-0.0847-0.63302v-2.6046z"/>
  <path d="m37.955 10.416v5.939h-0.71768v-5.939z"/>
  <path d="m40.458 16.419q-0.48383 0-0.7459-0.27014-0.25805-0.27014-0.25805-0.77816v-2.4998h-0.49189q-0.0645 0-0.10886-0.0363-0.0444-0.0403-0.0444-0.12096v-0.28626l0.6693-0.0847 0.16531-1.262q8e-3 -0.0605 0.0524-0.0968 0.0444-0.0403 0.11289-0.0403h0.36288v1.4071h1.1692v0.52012h-1.1692v2.4514q0 0.25804 0.12498 0.38303 0.12499 0.12499 0.32256 0.12499 0.11289 0 0.19353-0.0282 0.0847-0.0323 0.14515-0.0685 0.0605-0.0363 0.1008-0.0645 0.0444-0.0323 0.0766-0.0323 0.0564 0 0.10079 0.0685l0.20966 0.34271q-0.18547 0.17338-0.44754 0.27418-0.26208 0.0968-0.54028 0.0968z"/>
  <path d="m45.228 16.355h-0.31852q-0.10483 0-0.16934-0.0323-0.0645-0.0323-0.0847-0.13709l-0.0806-0.379q-0.16128 0.14515-0.31449 0.26207-0.15322 0.1129-0.32256 0.19354-0.16934 0.0766-0.36287 0.11692-0.1895 0.0403-0.42335 0.0403-0.23789 0-0.44755-0.0645-0.20562-0.0685-0.35884-0.2016-0.15321-0.13305-0.24595-0.33465-0.0887-0.20562-0.0887-0.48383 0-0.24191 0.13306-0.46367 0.13305-0.22579 0.42738-0.39916 0.29836-0.17337 0.77816-0.28223 0.4798-0.1129 1.1733-0.12902v-0.31853q0-0.47576-0.20563-0.71768-0.20159-0.24595-0.60075-0.24595-0.26208 0-0.44351 0.0685-0.17741 0.0645-0.31046 0.14918-0.12902 0.0806-0.22579 0.14918-0.0927 0.0645-0.18547 0.0645-0.0726 0-0.12902-0.0363-0.0524-0.0403-0.0847-0.0968l-0.12902-0.22982q0.33868-0.32659 0.72978-0.48787 0.39109-0.16127 0.86686-0.16127 0.34271 0 0.60882 0.11289t0.44754 0.31449q0.18144 0.2016 0.27417 0.48786 0.0927 0.28627 0.0927 0.62898zm-1.8628-0.43948q0.1895 0 0.34675-0.0363 0.15724-0.0403 0.29433-0.10886 0.14111-0.0726 0.2661-0.17337 0.12902-0.1008 0.24998-0.22982v-0.85074q-0.49592 0.0161-0.84267 0.0806-0.34675 0.0605-0.56447 0.16128-0.21772 0.1008-0.31852 0.23788-0.0968 0.13709-0.0968 0.30643 0 0.16128 0.0524 0.2782 0.0524 0.11693 0.14111 0.19353 0.0887 0.0726 0.20966 0.10887 0.12096 0.0323 0.26208 0.0323z"/>
  <path d="m46.323 16.355v-4.0843h0.42738q0.15322 0 0.19354 0.14918l0.0564 0.44351q0.26611-0.29433 0.5927-0.47576 0.33061-0.18144 0.76203-0.18144 0.33465 0 0.58866 0.11289 0.25804 0.10887 0.42739 0.31449 0.17337 0.2016 0.26207 0.48787 0.0887 0.28626 0.0887 0.63301v2.6006h-0.71768v-2.6006q0-0.46367-0.21369-0.71768-0.20966-0.25805-0.64511-0.25805-0.31852 0-0.59673 0.15322-0.27417 0.15321-0.50802 0.41528v3.0078z"/>
  <path d="m53.598 12.996q-0.0323 0.0444-0.0645 0.0685-0.0323 0.0242-0.0927 0.0242-0.0605 0-0.13305-0.0484-0.0686-0.0524-0.17741-0.1129-0.10886-0.0605-0.26611-0.10886-0.15321-0.0524-0.379-0.0524-0.29836 0-0.52818 0.10886-0.22982 0.10483-0.38706 0.30643-0.15322 0.20159-0.23386 0.48786-0.0766 0.28627-0.0766 0.64107 0 0.37094 0.0847 0.66124 0.0847 0.28627 0.23788 0.48383 0.15322 0.19353 0.37094 0.29836 0.22175 0.1008 0.49593 0.1008 0.26207 0 0.43141-0.0605 0.16934-0.0645 0.28224-0.14111 0.11289-0.0766 0.18547-0.13709 0.0726-0.0645 0.14514-0.0645 0.0927 0 0.13709 0.0685l0.2016 0.26208q-0.26611 0.32658-0.66527 0.4798-0.39916 0.14918-0.84267 0.14918-0.38304 0-0.71365-0.14112-0.32659-0.14112-0.56851-0.40722-0.24191-0.27014-0.38303-0.66124-0.13708-0.3911-0.13708-0.89106 0-0.4556 0.12499-0.84267 0.12902-0.38706 0.37093-0.66527 0.24595-0.28223 0.60479-0.43948 0.35884-0.15724 0.82251-0.15724 0.42739 0 0.75801 0.14112 0.33061 0.13708 0.58463 0.39109z"/>
  <path d="m55.773 17.56q-0.0363 0.0806-0.0927 0.12902-0.0524 0.0484-0.1653 0.0484h-0.53222l0.74591-1.6208-1.6854-3.8465h0.62092q0.0927 0 0.14515 0.0484 0.0524 0.0443 0.0766 0.1008l1.0926 2.5724q0.0363 0.0887 0.0605 0.1774 0.0282 0.0887 0.0484 0.18144 0.0282-0.0927 0.0565-0.18144 0.0282-0.0887 0.0645-0.18143l1.0604-2.5683q0.0242-0.0645 0.0806-0.10483 0.0605-0.0444 0.12902-0.0444h0.57254z"/>
  <path d="m-6.5e-4 17.334v-16.934h8.9509c0.41932 0 0.80638 0.16128 1.1612 0.48384l2.3224 1.9353c0.38707 0.32256 0.5806 0.6451 0.5806 0.96766v10.16c0 0.32256-0.19353 0.64511-0.5806 0.96767l-2.3224 1.9353c-0.35481 0.32256-0.74187 0.48383-1.1612 0.48383zm10.983-4.1126v-8.709c-10.983-4.1126-10.983 12.822 0 8.709z"/>
 </g>
</svg>
